<svg xmlns="http://www.w3.org/2000/svg" viewBox="0 0 401.3 152.74"><defs><style>.cls-1{fill:#ff9110;}.cls-2{stroke:#ff9110;stroke-miterlimit:10;stroke-width:2px;}.cls-3{fill:#ffcd71;}.cls-4{fill:#ff883e;opacity:0.48;isolation:isolate;}.cls-5{fill:#fcad5e;}.cls-6{fill:#f98008;}.cls-7,.cls-9{fill:#fff;}.cls-7{opacity:0.47;}.cls-8{fill:#f91c1c;}</style></defs><title>Ресурс 1</title><g id="Слой_2" data-name="Слой 2"><g id="Слой_1-2" data-name="Слой 1"><path d="M183,72.63V30.22h36.89v42.4h-9V38.4H192.05V72.63Z"/><path d="M228,72.63V43.55h8.42V59.91l13-16.36h7.27V72.63h-8.36V56.27l-13,16.36Z"/><path d="M281.77,42.7c9.21,0,14.18,7.45,14.18,15.39s-5,15.39-14.18,15.39a12.51,12.51,0,0,1-9.57-3.94V86h-8.42V43.55h7.45v4.24C273,45.19,276.38,42.7,281.77,42.7Zm-2.06,7.09a8.3,8.3,0,0,0-7.57,4.85v6.91a8.3,8.3,0,0,0,7.57,4.85c4.79,0,7.63-3.76,7.63-8.3S284.5,49.79,279.71,49.79Z"/><path d="M315.88,42.7c8.48,0,16.05,5.21,16.05,15.39s-7.57,15.39-16.05,15.39-16.05-5.21-16.05-15.39S307.46,42.7,315.88,42.7Zm0,7.51c-4.79,0-7.45,3.39-7.45,7.88S311.09,66,315.88,66s7.51-3.39,7.51-7.87S320.73,50.21,315.88,50.21Z"/><path d="M337.45,72.63V43.55h22.17v7.09H345.87v22Z"/><path d="M364.1,72.63V43.55h8.42V59.91l13-16.36h7.27V72.63H384.4V56.27l-13,16.36Z"/><path class="cls-1" d="M203.14,82.42c15,0,22.53,10.54,22.53,22.05s-7.51,22.05-22.53,22.05S180.6,116,180.6,104.47,188.12,82.42,203.14,82.42Zm0,8.42c-8.84,0-13.27,6.18-13.27,13.63s4.42,13.63,13.27,13.63,13.21-6.18,13.21-13.63S211.92,90.84,203.14,90.84Z"/><path class="cls-1" d="M231.13,125.67V96.6h8.42v11H251.3v-11h8.42v29.08H251.3v-11H239.55v11Z"/><path class="cls-1" d="M268.69,126.28a13.82,13.82,0,0,1-4.6-.85v-6.66a4.8,4.8,0,0,0,1.76.36c4.6,0,5.63-9.51,6.18-22.53h23.63v29.08h-8.42V103.26h-7.45C278.93,116.34,276.69,126.28,268.69,126.28Z"/><path class="cls-1" d="M330.84,120.1a5,5,0,0,0,1.57-.24v5.51a14.2,14.2,0,0,1-4.66.85c-3,0-5.21-1.09-6.42-3.27a16.23,16.23,0,0,1-10.48,3.57c-5.45,0-10.18-3.15-10.18-8.9,0-7.39,7-9.69,12.78-9.69a31.74,31.74,0,0,1,6.91.79v-1c0-2.91-2.3-4.91-6.85-4.91a27.87,27.87,0,0,0-10.3,2.18V97.69a38,38,0,0,1,11.27-1.94c8.72,0,14.3,3.57,14.3,13.15v9.27C328.78,119.68,329.75,120.1,330.84,120.1Zm-21.57-3.15c0,2.18,2,3.57,4.54,3.57a9.6,9.6,0,0,0,6.54-2.36v-4.54a22.91,22.91,0,0,0-5-.67C312.31,113,309.28,114,309.28,116.95Z"/><path class="cls-1" d="M336.9,125.67V96.6h8.42V113l13-16.36h7.27v29.08H357.2V109.32l-13,16.36Zm14.36-32.59A16.77,16.77,0,0,1,342,90.66v-6.3a19.81,19.81,0,0,0,18.54,0v6.3A16.77,16.77,0,0,1,351.26,93.08Z"/><path class="cls-1" d="M372.71,125.67V96.6h8.42v11h11.75v-11h8.42v29.08h-8.42v-11H381.13v11Z"/><circle class="cls-2" cx="76.37" cy="76.37" r="75.37"/><path class="cls-3" d="M43.57,83.11H31.91a63.62,63.62,0,0,1,90,0H43.57Z"/><path class="cls-4" d="M43.57,83.11H31.91a63.62,63.62,0,0,1,90,0H43.57Z"/><path class="cls-5" d="M32.33,100.54l-1.61-4.42,92.32-2-7.3,18.7a7.66,7.66,0,0,1-7.47,5.95H44.46A7.66,7.66,0,0,1,37,112.85Z"/><path class="cls-6" d="M122,96.11H30.74l1.61,4.42,1.22,3.22h76.64l-.94,2.51a7.66,7.66,0,0,1-7.47,5.95H38a7.69,7.69,0,0,1-1.16-.09l.27.73a7.66,7.66,0,0,0,7.47,5.95h63.82a7.66,7.66,0,0,0,7.47-5.95l6.27-16.74Z"/><path class="cls-3" d="M122.83,83.12A5.91,5.91,0,0,1,128.72,89v1.22a5.91,5.91,0,0,1-5.89,5.89H29.91A5.91,5.91,0,0,1,24,90.23V89a5.91,5.91,0,0,1,5.89-5.89Z"/><path class="cls-4" d="M124.49,83.36a5.84,5.84,0,0,1,.24,1.66v1.22a5.91,5.91,0,0,1-5.89,5.89H25.93a5.84,5.84,0,0,1-1.66-.24,5.91,5.91,0,0,0,5.65,4.23h92.92a5.91,5.91,0,0,0,5.89-5.89V89A5.91,5.91,0,0,0,124.49,83.36Z"/><path class="cls-1" d="M77.17,77.81a1.59,1.59,0,0,1-1.59-1.59V71.17a1.59,1.59,0,0,1,3.19,0v5.05A1.59,1.59,0,0,1,77.17,77.81Z"/><path class="cls-1" d="M64.62,77.67a1.59,1.59,0,0,1-1.44-2.28l2.26-4.77A1.59,1.59,0,0,1,68.32,72l-2.26,4.77A1.59,1.59,0,0,1,64.62,77.67Z"/><path class="cls-7" d="M78.22,40.4c10-11.42-4.12-20.61-4.12-20.61s25.85,10.4,11.68,24C79.13,50.11,75.64,51.08,76.31,60a12.52,12.52,0,0,1-2.73-11.12S73.87,45.4,78.22,40.4Z"/><path class="cls-7" d="M93.72,44.26C100.22,36.8,91,30.8,91,30.8s16.88,6.79,7.63,15.65C94.32,50.6,92,51.24,92.47,57.06a8.17,8.17,0,0,1-1.78-7.27S90.88,47.53,93.72,44.26Z"/><path class="cls-7" d="M67.66,33.25C74.16,25.79,65,19.79,65,19.79s16.88,6.79,7.63,15.65C68.26,39.59,66,40.22,66.41,46a8.17,8.17,0,0,1-1.78-7.27S64.82,36.51,67.66,33.25Z"/><path class="cls-1" d="M89.29,77.67a1.59,1.59,0,0,1-1.44-.91L85.59,72a1.59,1.59,0,1,1,2.88-1.36l2.26,4.77a1.59,1.59,0,0,1-1.44,2.28Z"/><circle class="cls-8" cx="41.45" cy="50.51" r="1.77"/><circle class="cls-8" cx="105.1" cy="50.51" r="1.77"/><circle class="cls-8" cx="85.65" cy="133.61" r="1.77"/><circle class="cls-9" cx="14.92" cy="62.08" r="0.96"/><circle class="cls-9" cx="55.59" cy="56.78" r="0.96"/><circle class="cls-9" cx="52.06" cy="39.1" r="0.96"/><circle class="cls-9" cx="27.3" cy="44.4" r="0.96"/><circle class="cls-9" cx="16.69" cy="51.47" r="0.96"/><circle class="cls-9" cx="27.3" cy="30.26" r="0.96"/><circle class="cls-9" cx="133.39" cy="47.94" r="0.96"/><circle class="cls-9" cx="29.07" cy="108.05" r="0.96"/><circle class="cls-9" cx="16.69" cy="101.79" r="1.77"/><circle class="cls-9" cx="30.84" cy="123" r="1.77"/><circle class="cls-9" cx="66.2" cy="125.74" r="0.96"/><circle class="cls-9" cx="106.87" cy="134.58" r="0.96"/><circle class="cls-9" cx="140.46" cy="93.91" r="0.96"/><circle class="cls-9" cx="144" cy="78" r="0.96"/><circle class="cls-9" cx="64.43" cy="55.01" r="0.96"/><circle class="cls-9" cx="18.46" cy="74.46" r="0.96"/><circle class="cls-9" cx="126.32" cy="58.55" r="0.96"/><circle class="cls-9" cx="92.72" cy="141.65" r="0.96"/><circle class="cls-9" cx="136.93" cy="102.75" r="0.96"/><circle class="cls-9" cx="96.26" cy="127.5" r="0.96"/><circle class="cls-9" cx="87.42" cy="14.34" r="0.96"/><circle class="cls-9" cx="67.97" cy="140.68" r="1.77"/><circle class="cls-9" cx="119.25" cy="124.77" r="1.77"/><circle class="cls-9" cx="128.09" cy="110.63" r="1.77"/><circle class="cls-9" cx="128.09" cy="69.96" r="1.77"/><circle class="cls-9" cx="32.61" cy="66.42" r="1.77"/><circle class="cls-8" cx="113.14" cy="60.31" r="0.96"/><circle class="cls-8" cx="68.93" cy="12.57" r="0.96"/><circle class="cls-8" cx="118.44" cy="24.95" r="0.96"/><circle class="cls-8" cx="12.35" cy="85.07" r="0.96"/><circle class="cls-9" cx="115.71" cy="36.36" r="1.77"/><circle class="cls-9" cx="106.87" cy="22.22" r="1.77"/><circle class="cls-8" cx="135.16" cy="90.21" r="0.96"/><circle class="cls-8" cx="37.91" cy="24.79" r="0.96"/><circle class="cls-8" cx="53.82" cy="132.65" r="0.96"/><circle class="cls-8" cx="25.53" cy="116.73" r="0.96"/><circle class="cls-9" cx="138.7" cy="59.35" r="1.77"/><circle class="cls-9" cx="53.82" cy="22.22" r="1.77"/></g></g></svg>